<svg xmlns="http://www.w3.org/2000/svg" viewBox="0 0 128 128">
  <rect width="128" height="128" rx="28" fill="#16302b"/>
  <path d="M89 38c-8-15-31-17-45-3-15 15-13 40 2 53 12 11 31 10 42-1 9-8 12-21 8-33l13-11-20-5Z" fill="#e6f4df"/>
  <path d="M78 43c-6-8-20-8-29 1-10 9-9 25 0 34 8 8 21 8 29 0 7-7 9-17 5-26l9-7-14-2Z" fill="#69b578"/>
  <circle cx="68" cy="48" r="5" fill="#16302b"/>
  <path d="M88 53h24l-19 13-5-13Z" fill="#f6c85f"/>
  <path d="M42 82c-8 0-15 5-18 13 11 3 22 0 29-8-3-3-7-5-11-5Z" fill="#d14f4f"/>
</svg>
